<?xml version="1.0" encoding="UTF-8"?>
<svg width="31mm" height="9mm" version="1.1" viewBox="0 0 31 9" xmlns="http://www.w3.org/2000/svg" xmlns:cc="http://creativecommons.org/ns#" xmlns:dc="http://purl.org/dc/elements/1.1/" xmlns:rdf="http://www.w3.org/1999/02/22-rdf-syntax-ns#">
<metadata>
<rdf:RDF>
<cc:Work rdf:about="">
<dc:format>image/svg+xml</dc:format>
<dc:type rdf:resource="http://purl.org/dc/dcmitype/StillImage"/>
<dc:title/>
</cc:Work>
</rdf:RDF>
</metadata>
<g transform="translate(0,-288)">
<g transform="translate(-160.69 210.34)">
<g transform="translate(.2443 .030373)">
<g transform="translate(80.769 -62.269)">
<g fill="#f2f2f2" stroke-width=".26458px" style="font-feature-settings:normal;font-variant-caps:normal;font-variant-ligatures:normal;font-variant-numeric:normal" aria-label="GitOwl">
<path d="m86.379 144.89v3.206q-0.46284 0.27093-1.0499 0.42898-0.58702 0.14675-1.2305 0.14675-0.94827 0-1.7159-0.3048-0.75636-0.31608-1.2982-0.85795-0.53058-0.54187-0.82409-1.2756-0.29351-0.73377-0.29351-1.5804 0-0.9144 0.32738-1.682 0.33867-0.77894 0.90311-1.3434 0.57573-0.56445 1.3321-0.88054 0.76764-0.31608 1.6143-0.31608 0.57573 0 1.1628 0.14675 0.59831 0.14676 1.0612 0.42898l-0.38382 0.63218q-0.37253-0.22578-0.88053-0.34996-0.49671-0.13547-0.97084-0.13547-0.68862 0-1.3095 0.27094-0.6096 0.27093-1.0837 0.73378-0.46284 0.46284-0.73378 1.095-0.27093 0.63218-0.27093 1.3434 0 0.67733 0.23707 1.2869 0.24836 0.6096 0.68862 1.0724 0.44027 0.45156 1.0612 0.72249 0.62089 0.25965 1.3772 0.25965 0.37253 0 0.77893-0.079 0.41769-0.0903 0.79022-0.25964v-2.032h-1.7385v-0.67733z" style="font-feature-settings:normal;font-variant-caps:normal;font-variant-ligatures:normal;font-variant-numeric:normal"/>
<path d="m87.575 142.43q0-0.19191 0.13547-0.31609 0.14676-0.13547 0.31609-0.13547t0.3048 0.13547q0.13547 0.12418 0.13547 0.31609 0 0.2032-0.13547 0.32738-0.13547 0.12417-0.3048 0.12417t-0.31609-0.12417q-0.13547-0.12418-0.13547-0.32738zm0.75636 6.1524h-0.62089v-4.5156h0.62089z" style="font-feature-settings:normal;font-variant-caps:normal;font-variant-ligatures:normal;font-variant-numeric:normal"/>
<path d="m90.221 142.09h0.62089v2.0207h1.3434v0.56445h-1.3434v3.906h-0.62089v-3.906h-0.90311v-0.56445h0.90311z" style="font-feature-settings:normal;font-variant-caps:normal;font-variant-ligatures:normal;font-variant-numeric:normal"/>
<path d="m92.876 144.56c0-0.56445 0.10536-1.095 0.31609-1.5917 0.21825-0.50424 0.51176-0.94451 0.88053-1.3208 0.3763-0.3763 0.8128-0.67358 1.3095-0.89183 0.50424-0.21825 1.0386-0.32737 1.603-0.32737s1.0988 0.10912 1.603 0.32737 0.94074 0.51553 1.3095 0.89183c0.37629 0.37629 0.67357 0.81656 0.89182 1.3208 0.21825 0.49671 0.32738 1.0273 0.32738 1.5917s-0.10913 1.0988-0.32738 1.603c-0.21825 0.49671-0.51553 0.93322-0.89182 1.3095-0.36877 0.36877-0.80527 0.66229-1.3095 0.88054-0.50424 0.21072-1.0386 0.31608-1.603 0.31608s-1.0988-0.10536-1.603-0.31608c-0.49671-0.21825-0.93322-0.51177-1.3095-0.88054-0.36877-0.37629-0.66228-0.8128-0.88053-1.3095-0.21072-0.50423-0.31609-1.0386-0.31609-1.603zm0.46054-0.0472c0 0.46661 0.15742 1.025 0.33052 1.4389 0.18062 0.4064 0.65769 0.69301 0.95872 1.0016 0.30104 0.30104 0.65476 0.54187 1.0612 0.72249 0.4064 0.1731 1.0281 0.73212 1.4872 0.73212s0.70283-0.55902 1.1092-0.73212c0.41393-0.18062 0.77141-0.42145 1.0724-0.72249 0.30856-0.30856 0.71476-0.54792 0.88785-0.95432 0.18062-0.41393 0.34181-0.71245 0.34181-1.1791s0.19076-1.2716 0.0101-1.678c-0.1731-0.41393-0.45877-0.6429-0.76733-0.95147-0.30104-0.30856-1.131-0.57301-1.5449-0.7461-0.4064-0.18063-0.83914-0.27094-1.2982-0.27094-0.46661 0-0.90311 0.0903-1.3095 0.27094-0.39887 0.17309-0.75259 0.27218-1.0612 0.58074-0.56549 0.11855-0.89246 0.95329-1.0656 1.3672-0.1731 0.4064-0.2124 0.65392-0.2124 1.1205z" style="font-feature-settings:normal;font-variant-caps:normal;font-variant-ligatures:normal;font-variant-numeric:normal"/>
<path d="m105 145.04-0.44027-0.97084h0.55316q0.56444 1.2531 0.92568 2.111 0.37254 0.84667 0.64347 1.4901 0.13547-0.4064 0.28222-0.79022 0.15805-0.38382 0.33867-0.80151t0.39511-0.90311q0.22578-0.48542 0.49671-1.1063h0.62089l-2.1336 4.7865q-0.38382-0.8128-0.7112-1.603-0.31609-0.79022-0.69991-1.603l-1.3547 3.206q-0.53057-1.2079-1.0499-2.3932-0.508-1.1853-1.0273-2.3932h0.62089q0.27093 0.62089 0.47413 1.1176 0.21449 0.48542 0.38382 0.90311 0.16934 0.41769 0.31609 0.80151 0.14676 0.37253 0.28222 0.77893 0.0903-0.23706 0.19191-0.48542 0.1016-0.24835 0.22578-0.55315t0.28222-0.68863q0.15805-0.39511 0.38383-0.90311z" style="font-feature-settings:normal;font-variant-caps:normal;font-variant-ligatures:normal;font-variant-numeric:normal"/>
<path d="m110.38 148.58h-0.62089v-8.6473h0.62089z" style="font-feature-settings:normal;font-variant-caps:normal;font-variant-ligatures:normal;font-variant-numeric:normal"/>
</g>
<g transform="matrix(1.0559 0 0 1.0559 10.699 -20.865)">
<g transform="matrix(1.0413 0 0 1.0747 -98.517 113.4)" fill="#f2f2f2">
<g transform="matrix(1.0578 0 0 1.2136 70.125 -8.3939)" fill="#f2f2f2" style="font-feature-settings:normal;font-variant-caps:normal;font-variant-ligatures:normal;font-variant-numeric:normal" aria-label="J">
<path d="m100.44 39.071c0.8109 1.4431-0.26217 2.2051-1.1658 3.2785-0.78775 0.69929-2.4475 0.92044-3.5324 0.0928-2.4824-1.8744-2.2514-4.4228 1.3149-4.8104 1.2102-0.20008 2.8024 0.45297 3.3833 1.439zm-6.0611 0.75274v0.05788c0 1.0253 0.61736 1.7584 1.8521 2.1993 0.43546 0 0.82131 0.2508 1.1576 0.75241 0.17639-0.50161 0.54019-0.75241 1.0914-0.75241 1.2347-0.46302 1.8521-1.2154 1.8521-2.2572 0-0.89848-0.54019-1.4745-1.6206-1.7281h-0.34726c-0.29214 0-0.61736 0.13505-0.97565 0.40514h-0.05788c-0.39688-0.26458-0.74414-0.39963-1.0418-0.40514h-0.17363c-1.1576 0.15434-1.7363 0.73036-1.7363 1.7281z" fill="#f2f2f2" stroke-width=".26458px" style="font-feature-settings:normal;font-variant-caps:normal;font-variant-ligatures:normal;font-variant-numeric:normal"/>
</g>
</g>
</g>
<ellipse cx="95.426" cy="144.5" rx=".65442" ry=".64314" fill="#f2f2f2"/>
<ellipse cx="98.679" cy="144.5" rx=".65442" ry=".64314" fill="#f2f2f2"/>
</g>
</g>
</g>
</g>
</svg>
